# xmcd
# 
# Track frame offsets:
#     150
#     12484
#     20815
#     33950
#     45737
#     57456
#     71180
#     83627
#     94417
#     104192
#     111617
#     119555
#     128811
#     141081
#     151797
#     163225
#     176683
#     186954
#     199414
#     212997
# 
# Disc length: 3010
# 
# Revision: 3
# Processed by: cddbd v1.5.2PL0 Copyright (c) Steve Scherf et al.
# Submitted via: fre:ac v1.0.17
# 
DISCID=3c0bc014
DTITLE=Various Artist - Country Greats CD1
DYEAR=2004
DGENRE=Country
TTITLE0=Flatt and Scuggs with The Foggy Mountain Boys - Foggy Mountain Breakdoxn
TTITLE1=Jim Reeves - Bimbo
TTITLE2=The Stanley Brothers With The Clinch Mountain Boys - Pretty Polly
TTITLE3=Burt Ives - It Makes No Différences Now
TTITLE4=Jimmy Wakely - Between The Lines
TTITLE5=Rex Allen and His Arizona Wranglers Withe Bonnie Allen - Home On The Range
TTITLE6=Porter Wagoner - I Love No One But You
TTITLE7=Spade Cooley and Tex Williams - Do Ya Or Don't Cha
TTITLE8=Johnny Bond and His Red River Valley Boys - Red River Valley
TTITLE9=Red Foley and His Crossroad Boys - Freight Train Boogie
TTITLE10=Pee Wee King and His Golden West Cowboys - Flower Of Texas
TTITLE11=Hank Penny and His California Cowhands - Crazy Rythm
TTITLE12=Hank  Snow - Blue Eyes Crying in The Rain
TTITLE13=June Carte - Juke Box Blues
TTITLE14=Ernest Tubb - Walking The Floor Over You
TTITLE15=Flatt and Scuggs with The Foggy Mountain Boys - 'tis Sweet To Be Remember
TTITLE16=Mac Wiseman and The Country Boys - A Broken Heart To Mend
TTITLE17=Charlie Monroe and  His Kentucky Partners - My Savior's Train
TTITLE18=Jimmy Wakely - Song Of The Sierra
TTITLE19=Tenessee Ernie Ford - I'm Too Sad And I'm Too Mean To Cry
EXTD=
EXTT0=
EXTT1=
EXTT2=
EXTT3=
EXTT4=
EXTT5=
EXTT6=
EXTT7=
EXTT8=
EXTT9=
EXTT10=
EXTT11=
EXTT12=
EXTT13=
EXTT14=
EXTT15=
EXTT16=
EXTT17=
EXTT18=
EXTT19=
PLAYORDER=
